<svg xmlns="http://www.w3.org/2000/svg">
    <symbol id="service-01" viewBox="0 0 1000 1000">
       <g> <path d="M212.8,891.1c-11.5,0-23-1.3-34-3.9c-8.8-2.1-15.9-8.8-18.4-17.5c-2.5-8.7-0.1-18.1,6.4-24.5l36.3-36.3l0.8-60.8l-58.2,0.8
		L108,786.6c-6.4,6.4-15.8,8.9-24.5,6.4c-8.7-2.5-15.4-9.5-17.5-18.3c-12-51,3-103.5,40.2-140.7c28.4-28.4,66.2-44.1,106.3-44.1
		c18.4,0,36.4,3.3,53.5,9.8l276.1-276.1c-21.1-55.5-8-117.5,34.3-159.8c28.4-28.4,66.2-44,106.3-44c11.5,0,23.1,1.3,34.2,3.9
		c8.8,2.1,15.9,8.7,18.4,17.5c2.5,8.7,0.1,18.1-6.4,24.6l-37.7,37.7l-0.8,58.2l60.8-0.8l36.3-36.3c6.4-6.4,15.8-8.8,24.5-6.4
		c8.7,2.5,15.4,9.5,17.5,18.4c11.9,50.8-3.2,103.3-40.2,140.4c-28.4,28.4-66.2,44-106.4,44c-18.4,0-36.3-3.3-53.3-9.7L353.5,687.4
		c21,55.4,7.8,117.4-34.4,159.6C290.8,875.4,253,891.1,212.8,891.1z M229.3,697.8c6.6,0,13,2.6,17.7,7.3c4.8,4.8,7.4,11.3,7.3,18
		l-1.3,96.6c-0.1,5.6-2,10.9-5.4,15.2c13.5-5,25.8-12.8,36.3-23.2c29.3-29.3,37.6-72.9,21.2-111l-4-9.2c-4.1-9.4-2-20.3,5.3-27.6
		l300-300c7.2-7.2,18.2-9.3,27.6-5.3l9.2,4c12.7,5.5,26.1,8.2,40,8.2c26.8,0,52-10.4,71-29.4c10.5-10.5,18.4-23,23.4-36.4
		c-4.3,3.5-9.7,5.5-15.4,5.5l-96.6,1.3c-0.1,0-0.2,0-0.3,0c-6.6,0-13-2.6-17.7-7.3c-4.8-4.8-7.4-11.3-7.3-18l1.3-94.1
		c0.1-6.2,2.5-12.1,6.7-16.7c-13.5,4.9-25.9,12.8-36.4,23.3c-29.4,29.4-37.6,73-21.1,111.1l4,9.2c4.1,9.4,2,20.4-5.3,27.6L289.5,647
		c-7.3,7.3-18.2,9.3-27.6,5.3l-9.2-4c-12.7-5.5-26.2-8.3-40.1-8.3c-26.8,0-52,10.4-71,29.4c-10.6,10.6-18.5,23-23.5,36.5
		c4.5-4.3,10.6-6.7,16.8-6.8l94.1-1.3C229.1,697.8,229.2,697.8,229.3,697.8z"/> </g> <g> <path d="M218.8,346.2c-6.4,0-12.8-2.5-17.7-7.4L86.6,223.9c-4.7-4.7-7.3-11.1-7.3-17.7s2.7-13,7.4-17.7l43.7-43.5
		c9.8-9.7,25.6-9.7,35.4,0.1L280.1,260c4.7,4.7,7.3,11.1,7.3,17.7s-2.7,13-7.4,17.7l-43.7,43.5C231.5,343.7,225.1,346.2,218.8,346.2
		z M139.7,206.3l79.1,79.5l8.2-8.2l-79.1-79.5L139.7,206.3z"/> </g> <g> <rect x="400.7" y="223" transform="matrix(0.7086 -0.7056 0.7056 0.7086 -218.4077 441.8588)" width="50" height="524.8"/> </g> <g> <path d="M777,913c-18.6,0-37.2-7.1-51.4-21.3v0L537.2,702.5l112.2-111.8l188.4,189.2c28.2,28.3,28.1,74.3-0.2,102.5l-9.5,9.4
		C814,905.9,795.5,913,777,913z M761,856.4c8.8,8.8,23,8.8,31.8,0.1l9.5-9.4c8.8-8.8,8.8-23,0.1-31.8L649.3,661.4l-41.4,41.2
		L761,856.4L761,856.4z"/> </g> <g> <path d="M540.7,758.4c-6.4,0-12.8-2.5-17.7-7.4c-9.7-9.8-9.7-25.6,0.1-35.4l140.4-139.8c9.8-9.7,25.6-9.7,35.4,0.1
		c9.7,9.8,9.7,25.6-0.1,35.4L558.3,751.1C553.4,756,547,758.4,540.7,758.4z"/> </g> 
    </symbol>
    <symbol id="service-02" viewBox="0 0 1000 1000">
       <g> <path d="M502.9,525.2c-3.4,0-6.7-0.7-9.9-2l-368.4-159c-9.2-4-15.1-13-15.1-23c0-4.6,1.4-16.1,14.6-22.9c1.1-0.6,2.5-1.2,4.3-2
		c2.9-1.3,6.9-3,12.3-5.3c9.7-4,23.8-9.8,42.1-17.1c30.6-12.3,73.3-29.1,126.8-50.1c91.1-35.7,183.3-71.5,184.3-71.9
		c5.9-2.3,12.5-2.3,18.4,0.1l360.6,146c9.3,3.8,15.5,12.7,15.6,22.8c0.2,10-5.7,19.2-14.9,23.3L513,523
		C509.7,524.5,506.3,525.2,502.9,525.2z M198.3,341.5l304.4,131.4l296.5-130.7L502.7,222.1C403.2,260.7,270.6,312.6,198.3,341.5z"/> </g> <g> <path d="M502.9,840.6c-3.2,0-6.5-0.6-9.5-1.9L117,683.9c-12.8-5.3-18.9-19.9-13.6-32.6c5.3-12.8,19.9-18.9,32.6-13.6l366.8,150.9
		l361.1-150.9c12.7-5.3,27.4,0.7,32.7,13.4c5.3,12.7-0.7,27.4-13.4,32.7L512.5,838.7C509.4,840,506.1,840.6,502.9,840.6z"/> </g> <g> <path d="M502.9,685.8c-3.2,0-6.5-0.6-9.5-1.9L117,529c-12.8-5.3-18.9-19.9-13.6-32.6c5.3-12.8,19.9-18.9,32.6-13.6l366.8,150.9
		l361.1-150.9c12.7-5.3,27.4,0.7,32.7,13.4c5.3,12.7-0.7,27.4-13.4,32.7L512.5,683.8C509.4,685.1,506.1,685.8,502.9,685.8z"/> </g> 
    </symbol>
    <symbol id="service-03" viewBox="0 0 1000 1000">
       <g> <path d="M477.2,904.1c-7.6,0-14.8-3.4-19.5-9.4L81.2,425.5c-7.2-9-7.3-21.7-0.4-30.8L249.7,174c4.7-6.2,12.1-9.8,19.9-9.8h412.7
		c7.7,0,15,3.6,19.8,9.7l166.2,214.6c7,9,7,21.7-0.1,30.7L496.9,894.5c-4.7,6-11.9,9.6-19.5,9.6
		C477.3,904.1,477.2,904.1,477.2,904.1z M132.4,409.5l344.5,429.4l339.8-435.2L670,214.2H281.9L132.4,409.5z"/> </g> <g> <path d="M477.2,904.1c-11,0-20.8-7.2-23.9-17.8l-207.6-690c-4-13.2,3.5-27.2,16.7-31.1c13.2-4,27.2,3.5,31.1,16.7L477,791.9
		L658.3,182c3.9-13.2,17.9-20.8,31.1-16.8c13.2,3.9,20.8,17.9,16.8,31.1l-205.1,690C498,896.8,488.3,904.1,477.2,904.1
		C477.2,904.1,477.2,904.1,477.2,904.1z"/> </g> <g> <path d="M333.2,425.8c-4.8,0-9.7-1.4-13.9-4.3c-11.4-7.7-14.5-23.3-6.8-34.7l142.7-211.7c4.6-6.9,12.4-11,20.7-11c0,0,0,0,0,0
		c8.3,0,16,4.1,20.7,11L640,386.8c7.7,11.4,4.8,27-6.7,34.7c-11.4,7.7-27,4.8-34.7-6.7L476,233.8l-122,181
		C349.2,422,341.3,425.8,333.2,425.8z"/> </g> <g> <path d="M103.4,431.8c-13.8,0-24.9-11.1-25-24.9c-0.1-13.8,11.1-25,24.9-25.1l745-3.1c0,0,0.1,0,0.1,0c13.8,0,24.9,11.1,25,24.9
		c0.1,13.8-11.1,25-24.9,25.1l-745,3.1C103.5,431.8,103.5,431.8,103.4,431.8z"/> </g> 
    </symbol>
    <symbol id="service-04" viewBox="0 0 1000 1000">
       <g> <path d="M389.8,891.4H206.7c-51.8,0-94-42.1-94-94V200.3c0-51.8,42.1-94,94-94h553.4c51.8,0,94,42.1,94,94v52.3
		c0,13.8-11.2,25-25,25s-25-11.2-25-25v-52.3c0-24.2-19.7-44-44-44H206.7c-24.2,0-44,19.7-44,44v597.2c0,24.2,19.7,44,44,44h183.1
		c13.8,0,25,11.2,25,25S403.6,891.4,389.8,891.4z"/> </g> <g> <path d="M710.8,315.2H259.3c-13.8,0-25-11.2-25-25s11.2-25,25-25h451.5c13.8,0,25,11.2,25,25S724.6,315.2,710.8,315.2z"/> </g> <g> <path d="M590.8,489.1H259.3c-13.8,0-25-11.2-25-25s11.2-25,25-25h331.5c13.8,0,25,11.2,25,25S604.6,489.1,590.8,489.1z"/> </g> <g> <path d="M440.8,676.6H259.3c-13.8,0-25-11.2-25-25s11.2-25,25-25h181.5c13.8,0,25,11.2,25,25S454.6,676.6,440.8,676.6z"/> </g> <g> <path d="M557.2,889.4c-16.9,0-33.1-6.8-45-18.9c-12.6-12.8-19.2-30.4-18-48.4c4.9-74.6,5.6-87.8,5.7-89.9
		c0.1-10.6,5.6-16.2,14.7-25.5c4.8-4.9,11.8-11.8,20.9-20.7c15.9-15.5,38.5-37.4,67.3-64.9c53.1-50.9,116-110.6,148.8-141.6
		c12.9-12.2,29.9-18.9,47.7-18.6c17.8,0.2,34.5,7.3,47.1,19.9l63.3,63.3c13,13,20.1,30.3,19.9,48.6c-0.2,18.4-7.5,35.5-20.7,48.3
		L656.9,884.6l-96.7,4.7C559.2,889.4,558.2,889.4,557.2,889.4z M559,864.4L559,864.4L559,864.4z M549.3,742.7
		c-0.6,10.7-2.1,33.3-5.3,82.7c-0.3,5.1,2.2,8.5,3.7,10.1c1.5,1.6,4.9,4.1,10,3.9h0l77.9-3.8L874,605c3.5-3.4,5.4-7.9,5.5-12.8
		c0-4.9-1.8-9.4-5.3-12.9l-63.3-63.3c-6.9-6.9-17.9-7.1-25.1-0.3C658.7,636.3,570.9,720.6,549.3,742.7z M499.8,732.4
		c0,0.1,0,0.2,0,0.2C499.8,732.6,499.8,732.5,499.8,732.4z"/> </g> <g> <path d="M650,768.3l-11.2-0.7c-7.1-0.4-69.8-5.4-102.5-47.3c-8.5-10.9-6.5-26.6,4.4-35.1c10.9-8.5,26.6-6.5,35.1,4.4
		c12.7,16.3,39.1,24,55.5,26.8l160.9-160.9c9.8-9.8,25.6-9.8,35.4,0c9.8,9.8,9.8,25.6,0,35.4L650,768.3z"/> </g> <g> <path d="M859.5,678.9c-11.5,0-21.8-7.9-24.4-19.6c-0.1-0.5-6.5-27.9-24-53.4c-21.6-31.2-49-45-83.9-42c-0.7,0.1-1.4,0.1-2.1,0.1
		c-12.8,0-23.8-9.8-24.9-22.9c-1.2-13.8,9-25.9,22.8-27c53.4-4.5,98.4,17.9,130.3,64.9c22.6,33.4,30.4,68,30.7,69.5
		c3,13.5-5.6,26.8-19.1,29.8C863.1,678.7,861.2,678.9,859.5,678.9z"/> </g> <g> <path d="M655.4,844.9c-3.6-3.9-35-40.6-31.1-111c0.8-13.8,12.6-24.4,26.3-23.6c13.8,0.8,24.3,12.5,23.6,26.3
		c-2.7,49.6,17.5,73.9,18.4,74.9c-0.2-0.2-0.3-0.3-0.3-0.3L655.4,844.9z"/> </g> 
    </symbol></svg>